<?xml version="1.0" encoding="UTF-8"?>
<svg version="1.1" xmlns="http://www.w3.org/2000/svg" width="512" height="512" viewBox="0 0 500 500">
<path d="M0 0 C165 0 330 0 500 0 C500 165 500 330 500 500 C335 500 170 500 0 500 C0 335 0 170 0 0 Z " fill="#F3EBD8" transform="translate(0,0)"/>
<path d="M0 0 C9.70013434 -0.28576501 19.63020721 -0.22942748 28.890625 3.01171875 C32.50788875 4.16142695 36.05700307 4.56534168 39.8125 4.9375 C44.97200276 5.51712768 49.70751652 6.30868306 54.56640625 8.1640625 C57.14817825 9.05089911 59.75141492 9.67208525 62.41015625 10.28271484 C72.33775412 12.57094007 81.59320848 16.1240535 91 20 C91 20.66 91 21.32 91 22 C91.804375 22.2475 92.60875 22.495 93.4375 22.75 C100.01979527 25.05957729 106.50395535 27.63134912 112 32 C112 32.99 112 33.98 112 35 C112.58136719 35.11085937 113.16273438 35.22171875 113.76171875 35.3359375 C126.50374052 39.116293 139.90689488 56.44697981 146.22265625 67.5859375 C149.57040442 74.01655706 152.83815632 80.47591409 156 87 C156.37125 87.68191406 156.7425 88.36382812 157.125 89.06640625 C158.34583769 91.76423953 158.95976271 94.49230507 159.625 97.375 C159.88539063 98.47585938 160.14578125 99.57671875 160.4140625 100.7109375 C160.98005247 103.88802785 161.10695826 106.78152858 161 110 C161.66 110 162.32 110 163 110 C163 112.64 163 115.28 163 118 C163.66 118 164.32 118 165 118 C165.33 120.64 165.66 123.28 166 126 C166.66 126 167.32 126 168 126 C169.81087865 132.286824 169.97533312 139.00480044 170.5625 145.5 C170.6310318 146.24989197 170.6995636 146.99978394 170.77017212 147.7723999 C172.09473832 162.54409426 172.34769894 177.16841124 172 192 C164.56406693 191.263769 157.20679902 190.16004831 149.83325195 188.953125 C148.4814104 188.73361611 147.12885274 188.5184746 145.77563477 188.30761719 C143.7929072 187.99857098 141.81242703 187.67521463 139.83203125 187.3515625 C138.66389893 187.16416504 137.4957666 186.97676758 136.29223633 186.78369141 C132.84988785 185.96426696 130.09141482 184.70073282 127 183 C127 182.34 127 181.68 127 181 C125.948125 180.95875 124.89625 180.9175 123.8125 180.875 C118.44046356 180.22615723 113.96114601 177.83518492 109.140625 175.4921875 C106.53044394 174.25202685 103.97390369 173.20042683 101.25 172.25 C98 171 98 171 97 169 C95.80375 168.835 94.6075 168.67 93.375 168.5 C85.59972726 166.95738589 79.30959357 161.53873634 73 157 C72.15308594 156.40058594 71.30617188 155.80117188 70.43359375 155.18359375 C66.59479491 152.39372666 63.34408 149.38128813 60 146 C58.67217251 144.70408816 57.34260193 143.409961 56.01171875 142.1171875 C54.57016269 140.70327772 53.12875967 139.2892119 51.6875 137.875 C50.94693359 137.15957031 50.20636719 136.44414062 49.44335938 135.70703125 C48.74404297 135.01738281 48.04472656 134.32773437 47.32421875 133.6171875 C46.3664856 132.68302002 46.3664856 132.68302002 45.3894043 131.72998047 C44 130 44 130 44 127 C43.41863281 126.76023437 42.83726563 126.52046875 42.23828125 126.2734375 C34.33086439 121.77462791 28.97909263 110.85870795 25 103 C25 102.34 25 101.68 25 101 C24.34 101 23.68 101 23 101 C20.94226191 98.03685715 19.86475065 95.45900259 19 92 C18.34 91.67 17.68 91.34 17 91 C14.45587882 86.68605539 13.11817262 82.26668614 11.84375 77.46484375 C11.10618386 74.94481521 11.10618386 74.94481521 9.51171875 72.8515625 C7.24681711 68.57926742 6.90841867 64.19508023 6.3125 59.4375 C6.18294922 58.49197266 6.05339844 57.54644531 5.91992188 56.57226562 C5.39690024 52.65652161 5 48.96015239 5 45 C4.34 45 3.68 45 3 45 C1.33961453 41.67922906 1.31240167 37.96692185 0.9375 34.3125 C0.84807129 33.44141602 0.75864258 32.57033203 0.66650391 31.67285156 C-0.31201143 21.12725195 -0.18716679 10.57924267 0 0 Z " fill="#3B2D22" transform="translate(68,213)"/>
<path d="M0 0 C1 1 1 1 1.1328125 2.984375 C1.11282323 10.06057778 0.8725041 17.11844904 0.5625 24.1875 C0.50376709 25.60530762 0.50376709 25.60530762 0.44384766 27.05175781 C0.38076416 28.37771973 0.38076416 28.37771973 0.31640625 29.73046875 C0.26141968 30.92772583 0.26141968 30.92772583 0.20532227 32.14916992 C0 34 0 34 -1 35 C-1.28559917 36.67901659 -1.51475617 38.36772116 -1.71875 40.05859375 C-1.91017578 41.59676758 -1.91017578 41.59676758 -2.10546875 43.16601562 C-2.30076172 44.78540039 -2.30076172 44.78540039 -2.5 46.4375 C-2.75708152 48.56160423 -3.01734114 50.68532698 -3.28125 52.80859375 C-3.39533203 53.75532959 -3.50941406 54.70206543 -3.62695312 55.67749023 C-4 58 -4 58 -5 60 C-5.66 60 -6.32 60 -7 60 C-7.12375 61.299375 -7.2475 62.59875 -7.375 63.9375 C-7.5859375 66.15234375 -7.5859375 66.15234375 -8 68 C-8.99 68.495 -8.99 68.495 -10 69 C-11.58437221 71.47558158 -12.12885666 73.60133106 -12.75 76.5 C-14.11907088 82.42515924 -17.17107082 87.66239777 -20 93 C-20.66 93 -21.32 93 -22 93 C-22.09410156 93.85851562 -22.18820312 94.71703125 -22.28515625 95.6015625 C-23.08586274 99.40819991 -24.45597271 102.03812451 -26.4375 105.375 C-27.05496094 106.43460937 -27.67242187 107.49421875 -28.30859375 108.5859375 C-28.86675781 109.38257813 -29.42492187 110.17921875 -30 111 C-30.66 111 -31.32 111 -32 111 C-32.08765625 111.54785156 -32.1753125 112.09570312 -32.265625 112.66015625 C-34.44570752 119.60627025 -40.73232023 126.1594294 -46 131 C-46.825 131.825 -47.65 132.65 -48.5 133.5 C-49.325 134.325 -50.15 135.15 -51 136 C-51.804375 136.825 -52.60875 137.65 -53.4375 138.5 C-56 141 -56 141 -58.875 143.3125 C-61.39036816 145.35059317 -63.4174078 147.58540796 -65.5 150.0625 C-68.3570944 153.42304716 -71.2537589 155.63823931 -75 158 C-75.804375 158.886875 -76.60875 159.77375 -77.4375 160.6875 C-80.62951458 163.56809853 -82.80906896 163.534341 -87 164 C-88.0167562 164.98295821 -89.01463182 165.9855792 -90 167 C-94.33601308 169.51503684 -98.78303197 171.61569431 -103.5625 173.125 C-104.7690625 173.558125 -104.7690625 173.558125 -106 174 C-106.33 174.99 -106.66 175.98 -107 177 C-110.99340726 179.34319044 -115.07253353 180.76061403 -119.5 182.0625 C-121.66764231 182.70505111 -123.83433213 183.35082529 -126 184 C-127.1034375 184.32871094 -128.206875 184.65742188 -129.34375 184.99609375 C-132.13695759 185.70844759 -132.13695759 185.70844759 -133 188 C-134.98 188 -136.96 188 -139 188 C-139.01981934 187.03924561 -139.03963867 186.07849121 -139.06005859 185.08862305 C-139.52778613 163.17301074 -140.19037938 141.82961168 -144.59106445 120.28759766 C-145.4114689 116.26662744 -146.09932281 112.33193223 -146.46484375 108.2421875 C-146.84177829 104.49909219 -147.81319909 101.64321578 -149.5 98.25 C-152.22170022 91.91278676 -154.17011489 85.93527947 -153 79 C-151.04191026 75.78283749 -148.85557268 73.23315704 -146.2734375 70.49609375 C-144.2090925 68.22957063 -143.1035959 66.53686222 -141.9375 63.75 C-140.12004433 59.65444321 -137.31110427 57.37973405 -133.87890625 54.5859375 C-131.56784081 52.6352253 -129.87846498 50.36323014 -128 48 C-126.29558764 46.49759207 -124.54536957 45.05929216 -122.79296875 43.61328125 C-120.96102229 41.96492855 -119.47782189 40.23284882 -117.9375 38.3125 C-115.27696069 35.10728335 -112.81425661 33.76042613 -109 32 C-107.42058221 30.94148367 -105.85983279 29.8548885 -104.3125 28.75 C-80.56388486 11.87317305 -80.56388486 11.87317305 -72 13 C-72 12.34 -72 11.68 -72 11 C-69.58424393 10.49521515 -67.16755639 9.99602358 -64.75 9.5 C-64.06808594 9.35691406 -63.38617188 9.21382812 -62.68359375 9.06640625 C-59.35366879 8.38748951 -56.41667449 8 -53 8 C-53 7.34 -53 6.68 -53 6 C-36.06621769 1.31763872 -17.61109688 -1.38695452 0 0 Z " fill="#3B2D22" transform="translate(413,212)"/>
<path d="M0 0 C1.32 0 2.64 0 4 0 C4.495 1.485 4.495 1.485 5 3 C5.99 3.495 5.99 3.495 7 4 C7.95836275 5.71844356 8.91520446 7.43778054 9.859375 9.1640625 C11.51689747 11.8319925 13.75879789 13.81626462 16 16 C19 20.44827586 19 20.44827586 19 23 C19.66 23 20.32 23 21 23 C21.598125 24.0725 22.19625 25.145 22.8125 26.25 C23.97038711 28.29668778 25.05368632 30.06442358 26.5625 31.875 C28.85062186 35.25744101 29.82895632 39.11313162 31 43 C31.66 43 32.32 43 33 43 C33.35191406 43.71542969 33.70382812 44.43085937 34.06640625 45.16796875 C40.42517923 58.12189617 40.42517923 58.12189617 47.640625 70.60546875 C48.97021758 72.94753844 49.57381931 74.74656209 50.0625 77.375 C52.45912366 90.68581946 52.45912366 90.68581946 59 102 C60.82566542 105.76543492 61.58443846 109.60650666 62.42578125 113.671875 C62.98102483 115.92306664 63.72979502 117.92745715 64.625 120.0625 C66.26882916 124.16794267 66.23527588 127.60818365 66 132 C66.66 132 67.32 132 68 132 C68.24900646 133.93505023 68.47356242 135.87325934 68.6875 137.8125 C68.87892578 139.43091797 68.87892578 139.43091797 69.07421875 141.08203125 C69 144 69 144 67.734375 145.7890625 C65.02881994 147.67807617 62.05024124 148.7692009 59 150 C56.16989153 151.16533878 54.92943715 152.0759522 52.80078125 154.3671875 C49.76915111 157.2170044 47.10138589 158.56982216 43.3125 160.25 C36.437991 163.4702311 31.43101139 167.69135109 26 173 C24.52784593 174.25825134 23.04913384 175.50889008 21.5625 176.75 C18.64952187 179.28579968 16.89816515 181.6163143 15 185 C13.8726536 186.3078329 12.72446169 187.5978227 11.5625 188.875 C8.42163305 192.37520343 6.16883052 195.8358454 4 200 C2.35 200 0.7 200 -1 200 C-1.61488281 198.67742187 -1.61488281 198.67742187 -2.2421875 197.328125 C-7.2015578 187.93838389 -18.07379708 172.84530361 -28.4375 169.125 C-31 168 -31 168 -33.1875 165.75 C-36.3844138 162.62412873 -39.71012021 160.68974824 -43.59765625 158.52734375 C-46 157 -46 157 -47.9296875 155.015625 C-50.42493452 152.58629016 -52.93127521 151.32185123 -56.0625 149.8125 C-57.10535156 149.30332031 -58.14820313 148.79414063 -59.22265625 148.26953125 C-61.99650321 146.9418377 -61.99650321 146.9418377 -65 146 C-65.38750039 137.7763806 -64.58716898 130.8231062 -62 123 C-61.34 123 -60.68 123 -60 123 C-59.93941406 122.36191406 -59.87882813 121.72382813 -59.81640625 121.06640625 C-59.73261719 120.24011719 -59.64882812 119.41382813 -59.5625 118.5625 C-59.48128906 117.73878906 -59.40007812 116.91507812 -59.31640625 116.06640625 C-59 114 -59 114 -58 113 C-57.67708203 111.63200204 -57.39165725 110.25506824 -57.125 108.875 C-56.22255763 104.63686324 -54.7700227 100.96485084 -53 97 C-51.51918033 92.9277459 -50.23228938 88.8022846 -49.02734375 84.640625 C-48.68832031 83.48046875 -48.34929687 82.3203125 -48 81.125 C-47.690625 80.03445312 -47.38125 78.94390625 -47.0625 77.8203125 C-46.00990234 75.02628488 -45.12598832 73.97371367 -43 72 C-42.2730774 68.89160979 -42.2730774 68.89160979 -42 66 C-40.02 65.505 -40.02 65.505 -38 65 C-37.9175 64.360625 -37.835 63.72125 -37.75 63.0625 C-36.70209759 58.78356516 -34.83960782 54.99013527 -33 51 C-32.31136232 49.41716115 -31.62383087 47.83384047 -30.9375 46.25 C-29.49447566 43.01875726 -28.05625489 39.89745007 -26 37 C-25.34 37 -24.68 37 -24 37 C-23.89816406 36.44570312 -23.79632813 35.89140625 -23.69140625 35.3203125 C-20.66069286 25.14944383 -11.54494337 15.98295932 -4.625 8.1875 C-2.39228336 5.62715646 -0.9983894 3.29468503 0 0 Z " fill="#3B2D22" transform="translate(239,58)"/>
<path d="M0 0 C5.29052279 3.84765294 5.42124415 12.966239 6.53515625 18.99609375 C6.8108281 20.98717245 6.8108281 20.98717245 8 22 C8.04092937 24.33297433 8.04241723 26.66705225 8 29 C8.99 29.33 9.98 29.66 11 30 C11.12060791 31.0041394 11.12060791 31.0041394 11.24365234 32.02856445 C11.61737399 35.12363009 11.99616289 38.21805649 12.375 41.3125 C12.50132812 42.36501953 12.62765625 43.41753906 12.7578125 44.50195312 C13.36470257 49.43293491 14.03945557 54.26935205 15.09375 59.125 C16.62211101 67.22326187 16.21073891 75.48163895 16.125 83.6875 C16.11494678 85.37173945 16.10582508 87.05598473 16.09765625 88.74023438 C16.07583596 92.82696937 16.04143636 96.91341875 16 101 C14.54176788 101.0270043 13.08339325 101.04639787 11.625 101.0625 C10.81289062 101.07410156 10.00078125 101.08570313 9.1640625 101.09765625 C7 101 7 101 5 100 C2.66922657 99.69208131 0.33758104 99.49104726 -2.00390625 99.28125 C-4 99 -4 99 -5 98 C-6.7634375 97.814375 -6.7634375 97.814375 -8.5625 97.625 C-13.07118861 97.12765822 -16.81419207 95.71917112 -21 94 C-17.07116224 92.54183004 -13.85888025 93.4053888 -9.828125 94.21484375 C-9.1457074 94.34943497 -8.46328979 94.48402618 -7.76019287 94.62269592 C-5.58843817 95.05293895 -3.41929452 95.49503698 -1.25 95.9375 C0.22510378 96.23190572 1.70036285 96.52553449 3.17578125 96.81835938 C6.78569745 97.53657765 10.39336828 98.2654447 14 99 C13.62848018 81.92650901 12.62141716 65.02008167 11.01635742 48.02392578 C10.94991028 47.31845612 10.88346313 46.61298645 10.81500244 45.88613892 C10.63283579 43.96742582 10.44632799 42.04912629 10.25952148 40.13085938 C10 37 10 37 10 33 C9.34 33 8.68 33 8 33 C7.67 30.36 7.34 27.72 7 25 C6.34 25 5.68 25 5 25 C5 22.36 5 19.72 5 17 C4.34 17 3.68 17 3 17 C2.49453964 14.91798472 1.99583165 12.83432933 1.5 10.75 C1.2215625 9.58984375 0.943125 8.4296875 0.65625 7.234375 C0 4 0 4 0 0 Z " fill="#C8C0AD" transform="translate(226,306)"/>
<path d="M0 0 C1 1 1 1 1.1328125 2.984375 C1.11282323 10.06057778 0.8725041 17.11844904 0.5625 24.1875 C0.50376709 25.60530762 0.50376709 25.60530762 0.44384766 27.05175781 C0.40179199 27.93573242 0.35973633 28.81970703 0.31640625 29.73046875 C0.27974854 30.52864014 0.24309082 31.32681152 0.20532227 32.14916992 C0 34 0 34 -1 35 C-1.28559917 36.67901659 -1.51475617 38.36772116 -1.71875 40.05859375 C-1.91017578 41.59676758 -1.91017578 41.59676758 -2.10546875 43.16601562 C-2.23566406 44.24560547 -2.36585938 45.32519531 -2.5 46.4375 C-2.75708152 48.56160423 -3.01734114 50.68532698 -3.28125 52.80859375 C-3.45237305 54.22869751 -3.45237305 54.22869751 -3.62695312 55.67749023 C-4 58 -4 58 -5 60 C-5.66 60 -6.32 60 -7 60 C-7.33 62.64 -7.66 65.28 -8 68 C-8.33 68 -8.66 68 -9 68 C-8.88570603 66.22844346 -8.75816963 64.45773771 -8.625 62.6875 C-8.55539062 61.70136719 -8.48578125 60.71523438 -8.4140625 59.69921875 C-8 57 -8 57 -6 54 C-5.46627412 51.44091916 -5.46627412 51.44091916 -5.18359375 48.5625 C-5.05919922 47.50289063 -4.93480469 46.44328125 -4.80664062 45.3515625 C-4.68482422 44.24554688 -4.56300781 43.13953125 -4.4375 42 C-4.18888556 39.81219291 -3.93769997 37.62467604 -3.68359375 35.4375 C-3.57587646 34.46683594 -3.46815918 33.49617188 -3.35717773 32.49609375 C-3 30 -3 30 -2 27 C-1.85060226 25.08234406 -1.75189717 23.16053478 -1.68359375 21.23828125 C-1.62075195 19.56088867 -1.62075195 19.56088867 -1.55664062 17.84960938 C-1.51732422 16.68236328 -1.47800781 15.51511719 -1.4375 14.3125 C-1.37272461 12.54422852 -1.37272461 12.54422852 -1.30664062 10.74023438 C-1.20048824 7.82694117 -1.09843758 4.91356243 -1 2 C-5.19953099 2.26180379 -9.39871761 2.52845935 -13.59765625 2.79956055 C-15.02530626 2.89105581 -16.45304103 2.98123869 -17.88085938 3.07006836 C-19.93643655 3.19818407 -21.99165992 3.33105946 -24.046875 3.46484375 C-25.90070801 3.58267212 -25.90070801 3.58267212 -27.79199219 3.70288086 C-30.34215004 3.93907128 -32.54972715 4.31842985 -35 5 C-36.41534778 5.06456879 -37.83337689 5.08611039 -39.25 5.0625 C-41.10625 5.0315625 -41.10625 5.0315625 -43 5 C-31.37785166 -1.52040717 -12.93769921 -0.70156583 0 0 Z " fill="#796E5F" transform="translate(413,212)"/>
<path d="M0 0 C0.66 0 1.32 0 2 0 C2.06058594 0.63808594 2.12117188 1.27617187 2.18359375 1.93359375 C2.26738281 2.75988281 2.35117187 3.58617187 2.4375 4.4375 C2.55931641 5.67306641 2.55931641 5.67306641 2.68359375 6.93359375 C2.78930815 8.98662025 2.78930815 8.98662025 4 10 C4.29034013 12.0781741 4.51726858 14.16524394 4.71875 16.25390625 C4.78132492 16.8985936 4.84389984 17.54328094 4.90837097 18.20750427 C5.11127933 20.32534144 5.30624965 22.44380657 5.5 24.5625 C5.56692047 25.27897705 5.63384094 25.9954541 5.70278931 26.73364258 C6.91729798 39.80784763 7.65782031 52.87239913 8 66 C8.90383423 65.68712036 8.90383423 65.68712036 9.82592773 65.36791992 C10.62458252 65.09568604 11.4232373 64.82345215 12.24609375 64.54296875 C13.0342749 64.27250732 13.82245605 64.0020459 14.63452148 63.72338867 C17.75865674 62.76799464 20.75588641 62.34511847 24 62 C20.70478482 64.19681012 17.71995598 65.09956003 13.9609375 66.21875 C11.81111965 66.82326856 11.81111965 66.82326856 11 69 C9.02 69 7.04 69 5 69 C4.98018066 68.03924561 4.96036133 67.07849121 4.93994141 66.08862305 C4.49930057 35.94193264 4.49930057 35.94193264 0.3671875 6.12890625 C0 4 0 4 0 0 Z " fill="#716557" transform="translate(269,331)"/>
<path d="M0 0 C21.20552237 -0.62471261 21.20552237 -0.62471261 30 4 C26.66605873 3.88880836 23.33311651 3.75850266 20 3.625 C19.06542969 3.5940625 18.13085938 3.563125 17.16796875 3.53125 C11.50024472 3.2934434 6.45098372 2.58129952 1 1 C1.11063216 4.3756301 1.24108015 7.75021989 1.375 11.125 C1.4059375 12.07632813 1.436875 13.02765625 1.46875 14.0078125 C1.68136952 19.1106809 2.3647584 23.14702492 4 28 C4.23548927 30.96377042 4.19045365 33.90441147 4.125 36.875 C4.11597656 37.65875 4.10695313 38.4425 4.09765625 39.25 C4.07428063 41.16680055 4.03841653 43.08344191 4 45 C0.98549679 41.98549679 1.25236613 38.38371491 0.875 34.3125 C0.79008301 33.44141602 0.70516602 32.57033203 0.61767578 31.67285156 C-0.30849698 21.12901761 -0.18706713 10.57360963 0 0 Z " fill="#64584A" transform="translate(68,213)"/>
<path d="M0 0 C2.52113092 -0.05447822 5.0410585 -0.09389852 7.5625 -0.125 C8.26697266 -0.14175781 8.97144531 -0.15851563 9.69726562 -0.17578125 C14.51891822 -0.22022044 18.42297438 0.47231996 23 2 C23 2.33 23 2.66 23 3 C16.07 2.67 9.14 2.34 2 2 C2.33 12.23 2.66 22.46 3 33 C2.34 33 1.68 33 1 33 C0.0902196 25.60072623 -0.12410745 18.32476219 -0.0625 10.875 C-0.05798828 9.823125 -0.05347656 8.77125 -0.04882812 7.6875 C-0.03718011 5.12493779 -0.02082553 2.56250123 0 0 Z " fill="#BFB6A4" transform="translate(66,211)"/>
<path d="M0 0 C2.12472576 -0.05386629 4.24983652 -0.09273071 6.375 -0.125 C7.55835938 -0.14820313 8.74171875 -0.17140625 9.9609375 -0.1953125 C13 0 13 0 15 2 C15.24291992 4.12304688 15.24291992 4.12304688 15.23046875 6.71875 C15.22853516 7.65074219 15.22660156 8.58273438 15.22460938 9.54296875 C15.20624023 11.00669922 15.20624023 11.00669922 15.1875 12.5 C15.18685547 13.47582031 15.18621094 14.45164063 15.18554688 15.45703125 C15.14034598 22.71930804 15.14034598 22.71930804 14 25 C13.7724985 26.87056791 13.59037189 28.74685958 13.4375 30.625 C13.35371094 31.62789062 13.26992188 32.63078125 13.18359375 33.6640625 C13.12300781 34.43492187 13.06242187 35.20578125 13 36 C12.67 36 12.34 36 12 36 C12 25.11 12 14.22 12 3 C7.71 2.67 3.42 2.34 -1 2 C-0.67 1.34 -0.34 0.68 0 0 Z " fill="#D1C9B6" transform="translate(401,210)"/>
<path d="M0 0 C8.67642082 15.87061974 6.29014972 40.61556796 6 58 C5.67 58 5.34 58 5 58 C4.98018066 57.3702124 4.96036133 56.7404248 4.93994141 56.09155273 C4.84401103 53.2064864 4.7346103 50.3220777 4.625 47.4375 C4.5940625 46.44685547 4.563125 45.45621094 4.53125 44.43554688 C4.31188103 38.9330418 3.588675 34.29558333 2 29 C1.48835925 25.53233163 1.17773361 22.05386224 0.875 18.5625 C0.78863281 17.65951172 0.70226562 16.75652344 0.61328125 15.82617188 C0.12977584 10.52679914 -0.08712192 5.32065988 0 0 Z " fill="#C4BCA9" transform="translate(268,331)"/>
<path d="M0 0 C0.66 0.33 1.32 0.66 2 1 C0.91332031 1.8353125 0.91332031 1.8353125 -0.1953125 2.6875 C-5.36279132 6.76636328 -9.79211658 10.57128135 -13.51953125 16.00390625 C-16.26790317 19.70949477 -19.66989304 22.82202991 -23 26 C-23.99 25.67 -24.98 25.34 -26 25 C-25.566875 24.608125 -25.13375 24.21625 -24.6875 23.8125 C-22.86141661 21.98956549 -22.86141661 21.98956549 -21.5 19.375 C-20 17 -20 17 -17 16 C-16.71898437 15.41347656 -16.43796875 14.82695312 -16.1484375 14.22265625 C-14.5579195 11.14440883 -12.32925233 9.57987684 -9.625 7.4375 C-8.66851562 6.67308594 -7.71203125 5.90867188 -6.7265625 5.12109375 C-4.50104302 3.38977988 -2.2646037 1.67967051 0 0 Z " fill="#B2A997" transform="translate(278,219)"/>
<path d="M0 0 C0 2.97 0 5.94 0 9 C-0.33 9 -0.66 9 -1 9 C-1 6.69 -1 4.38 -1 2 C-5.19953099 2.26180379 -9.39871761 2.52845935 -13.59765625 2.79956055 C-15.02530626 2.89105581 -16.45304103 2.98123869 -17.88085938 3.07006836 C-19.93643655 3.19818407 -21.99165992 3.33105946 -24.046875 3.46484375 C-25.90070801 3.58267212 -25.90070801 3.58267212 -27.79199219 3.70288086 C-30.34215004 3.93907128 -32.54972715 4.31842985 -35 5 C-36.41534778 5.06456879 -37.83337689 5.08611039 -39.25 5.0625 C-41.10625 5.0315625 -41.10625 5.0315625 -43 5 C-31.06734335 -1.69461253 -13.2388538 -0.19792306 0 0 Z " fill="#615548" transform="translate(413,212)"/>
<path d="M0 0 C2.28477554 3.42716331 2.67487662 6.04925971 3.33984375 10.0390625 C3.55769531 10.68617188 3.77554688 11.33328125 4 12 C4.99 12.33 5.98 12.66 7 13 C7.9140625 15.58203125 7.9140625 15.58203125 8.625 18.8125 C8.86476563 19.87082031 9.10453125 20.92914063 9.3515625 22.01953125 C9.73471905 23.7806665 10.09390834 25.54779867 10.3984375 27.32421875 C10.59695312 27.87722656 10.79546875 28.43023437 11 29 C11.99 29.33 12.98 29.66 14 30 C14.33 31.65 14.66 33.3 15 35 C15.66 35 16.32 35 17 35 C17 36.65 17 38.3 17 40 C14.42054787 37.0045072 12.82639007 34.85648699 12 31 C11.34 30.67 10.68 30.34 10 30 C7.4249812 25.63366377 6.1246983 21.14695926 4.7578125 16.3125 C4.05972244 13.86194702 4.05972244 13.86194702 2.375 11.4375 C0.33220215 7.81617654 0.25888146 4.09746863 0 0 Z " fill="#8F8575" transform="translate(75,274)"/>
<path d="M0 0 C5.29052279 3.84765294 5.42124415 12.966239 6.53515625 18.99609375 C6.8108281 20.98717245 6.8108281 20.98717245 8 22 C8.23363881 23.84891946 8.41303635 25.70488031 8.5625 27.5625 C8.64628906 28.57441406 8.73007813 29.58632813 8.81640625 30.62890625 C8.87699219 31.41136719 8.93757812 32.19382812 9 33 C6.8480563 29.77208445 6.79913557 28.71599191 7 25 C6.34 25 5.68 25 5 25 C5 22.36 5 19.72 5 17 C4.34 17 3.68 17 3 17 C2.49453964 14.91798472 1.99583165 12.83432933 1.5 10.75 C1.2215625 9.58984375 0.943125 8.4296875 0.65625 7.234375 C0 4 0 4 0 0 Z " fill="#827768" transform="translate(226,306)"/>
<path d="M0 0 C3.50755794 3.50755794 4.125 7.5605227 4.125 12.375 C4.08375 13.57125 4.0425 14.7675 4 16 C4.66 16 5.32 16 6 16 C6.24900646 17.93505023 6.47356242 19.87325934 6.6875 21.8125 C6.81511719 22.89144531 6.94273437 23.97039062 7.07421875 25.08203125 C7 28 7 28 5.51953125 29.88671875 C5.01808594 30.25410156 4.51664062 30.62148437 4 31 C3.34 30.67 2.68 30.34 2 30 C2.99 29.67 3.98 29.34 5 29 C5 26.03 5 23.06 5 20 C4.34 20 3.68 20 3 20 C2.49550598 17.41747107 1.99625699 14.83411297 1.5 12.25 C1.35691406 11.52039063 1.21382813 10.79078125 1.06640625 10.0390625 C0.41111121 6.60656468 0 3.50830509 0 0 Z " fill="#8F8575" transform="translate(301,174)"/>
<path d="M0 0 C0.33 0 0.66 0 1 0 C1.33 4.62 1.66 9.24 2 14 C2.66 14 3.32 14 4 14 C4.66 19.28 5.32 24.56 6 30 C5.34 30 4.68 30 4 30 C1.26220097 19.79436524 -0.66576476 10.6337427 0 0 Z " fill="#B9B19F" transform="translate(69,244)"/>
<path d="M0 0 C9.75273289 2.21540506 18.87654909 4.78385981 28 9 C24.57056481 10.18771723 22.62215325 9.80226223 19.25 8.5625 C18.45078125 8.27503906 17.6515625 7.98757812 16.828125 7.69140625 C16.22484375 7.46324219 15.6215625 7.23507813 15 7 C15 6.34 15 5.68 15 5 C14.33613281 4.96261719 13.67226562 4.92523438 12.98828125 4.88671875 C4.02414487 4.2193159 4.02414487 4.2193159 0 1 C0 0.67 0 0.34 0 0 Z " fill="#706456" transform="translate(131,224)"/>
<path d="M0 0 C4.23406875 2.11703437 6.15586372 7.83041329 8 12 C8.69640115 15.10053763 8.89528014 17.8060443 9 21 C6 19 6 19 5.48828125 17.0546875 C5.32552083 15.03645833 5.16276042 13.01822917 5 11 C4.34 11 3.68 11 3 11 C3 9.68 3 8.36 3 7 C2.34 7 1.68 7 1 7 C0.67 4.69 0.34 2.38 0 0 Z " fill="#766B5C" transform="translate(280,119)"/>
<path d="M0 0 C1.59954556 2.86771603 2.3180251 5.18753696 2.6328125 8.44921875 C2.71660156 9.29806641 2.80039063 10.14691406 2.88671875 11.02148438 C2.96535156 11.90126953 3.04398438 12.78105469 3.125 13.6875 C3.21136719 14.54794922 3.29773438 15.40839844 3.38671875 16.29492188 C3.91773938 21.88749631 4.07967233 27.38310087 4 33 C3.67 33 3.34 33 3 33 C0.88922469 25.99840385 0.57526217 19.28453657 0.375 12 C0.33632812 10.84371094 0.29765625 9.68742187 0.2578125 8.49609375 C0.16419668 5.6642152 0.07846325 2.83233206 0 0 Z " fill="#716557" transform="translate(235,339)"/>
<path d="M0 0 C0.33 1.32 0.66 2.64 1 4 C0.34 4 -0.32 4 -1 4 C-1.33 4.99 -1.66 5.98 -2 7 C-2.66 7 -3.32 7 -4 7 C-4 7.99 -4 8.98 -4 10 C-4.556875 10.061875 -5.11375 10.12375 -5.6875 10.1875 C-8.97199875 11.34151307 -10.65442984 13.47400137 -13 16 C-14 17 -15 18 -16 19 C-16.66 18.67 -17.32 18.34 -18 18 C-16.4840625 16.7625 -16.4840625 16.7625 -14.9375 15.5 C-11.47091081 12.53866268 -8.52784174 9.30384773 -5.578125 5.8359375 C-3.81554469 3.7854109 -1.95028928 1.87227771 0 0 Z " fill="#A09786" transform="translate(368,340)"/>
<path d="M0 0 C0.33 0 0.66 0 1 0 C1 2.97 1 5.94 1 9 C1.99 8.34 2.98 7.68 4 7 C5.79314611 6.37855852 7.60913443 5.82106844 9.4375 5.3125 C10.38496094 5.04050781 11.33242188 4.76851563 12.30859375 4.48828125 C14.98918237 4.00196256 16.46287583 4.10630851 19 5 C18.14535156 5.26554687 17.29070312 5.53109375 16.41015625 5.8046875 C15.30542969 6.15789062 14.20070313 6.51109375 13.0625 6.875 C11.96035156 7.22304688 10.85820312 7.57109375 9.72265625 7.9296875 C6.87121196 8.70024295 6.87121196 8.70024295 6 11 C4.02 11 2.04 11 0 11 C0 7.37 0 3.74 0 0 Z " fill="#ACA391" transform="translate(274,389)"/>
<path d="M0 0 C0.99 0 1.98 0 3 0 C-1.61029412 16.41544118 -1.61029412 16.41544118 -6 23 C-5.64739634 17.41913523 -4.99374322 13.78998916 -2 9 C-1.17276402 6.02901224 -0.56138164 3.03146084 0 0 Z " fill="#A89F8E" transform="translate(189,139)"/>
<path d="M0 0 C0.66 0.33 1.32 0.66 2 1 C0.09980313 2.66267226 -1.80119932 4.3242502 -3.70703125 5.98046875 C-5.20131304 7.2965568 -6.67898864 8.63181941 -8.13671875 9.98828125 C-8.81347656 10.61089844 -9.49023438 11.23351562 -10.1875 11.875 C-10.79980469 12.44992187 -11.41210938 13.02484375 -12.04296875 13.6171875 C-14.34561615 15.24420782 -16.22970845 15.6268001 -19 16 C-14.99482306 11.58049441 -10.39178234 8.29503579 -5.5234375 4.8671875 C-3.47107078 3.34856321 -1.72745896 1.86658317 0 0 Z " fill="#8E8374" transform="translate(348,359)"/>
<path d="M0 0 C4.28582092 5.06506108 5.22718755 10.3773967 5.625 16.875 C5.69976562 18.02742188 5.77453125 19.17984375 5.8515625 20.3671875 C5.90054687 21.23601562 5.94953125 22.10484375 6 23 C5.34 22.67 4.68 22.34 4 22 C3.4375 20.25 3.4375 20.25 3 18 C2.83757812 17.19175781 2.67515625 16.38351562 2.5078125 15.55078125 C2.34023438 14.70902344 2.17265625 13.86726563 2 13 C1.46140399 10.67961035 0.91607051 8.36094392 0.3671875 6.04296875 C0 4 0 4 0 0 Z " fill="#BCB4A2" transform="translate(262,306)"/>
<path d="M0 0 C0.66 0.33 1.32 0.66 2 1 C0.1875 3 0.1875 3 -2 5 C-2.99 5 -3.98 5 -5 5 C-5.33 5.99 -5.66 6.98 -6 8 C-10.13603337 11.25869296 -13.91009034 11.56865172 -19 12 C-16.77274507 9.50406034 -14.77793477 8.30614646 -11.6875 7.0625 C-7.45897057 5.26899649 -3.29428913 3.29428913 0 0 Z " fill="#ABA290" transform="translate(326,375)"/>
<path d="M0 0 C2.475 0.495 2.475 0.495 5 1 C5 1.66 5 2.32 5 3 C5.56847656 3.18175781 6.13695312 3.36351562 6.72265625 3.55078125 C11.60701003 5.14084634 16.31029027 6.90459778 21 9 C17.18510326 10.46726798 14.70988378 9.43336419 11 8 C11 7.34 11 6.68 11 6 C9.9275 5.938125 8.855 5.87625 7.75 5.8125 C4 5 4 5 1.5625 2.4375 C1.046875 1.633125 0.53125 0.82875 0 0 Z " fill="#A49B8A" transform="translate(161,381)"/>
<path d="M0 0 C1 2 1 2 0.58203125 3.91015625 C0.32808594 4.62042969 0.07414063 5.33070312 -0.1875 6.0625 C-0.54908203 7.13177734 -0.54908203 7.13177734 -0.91796875 8.22265625 C-2 10 -2 10 -4.11328125 10.74609375 C-4.73589844 10.82988281 -5.35851562 10.91367188 -6 11 C-5.938125 11.928125 -5.87625 12.85625 -5.8125 13.8125 C-6 17 -6 17 -7.5 18.875 C-8.2425 19.431875 -8.2425 19.431875 -9 20 C-9 18.02 -9 16.04 -9 14 C-8.34 14 -7.68 14 -7 14 C-7 12.68 -7 11.36 -7 10 C-6.34 10 -5.68 10 -5 10 C-4.855625 9.38125 -4.71125 8.7625 -4.5625 8.125 C-4 6 -4 6 -3 4 C-2.34 4 -1.68 4 -1 4 C-0.67 2.68 -0.34 1.36 0 0 Z " fill="#A19887" transform="translate(203,113)"/>
<path d="M0 0 C0.66 0 1.32 0 2 0 C2.06058594 0.63808594 2.12117188 1.27617187 2.18359375 1.93359375 C2.26738281 2.75988281 2.35117187 3.58617187 2.4375 4.4375 C2.55931641 5.67306641 2.55931641 5.67306641 2.68359375 6.93359375 C2.78930815 8.98662025 2.78930815 8.98662025 4 10 C4.23678716 12.69235776 4.42198025 15.36498156 4.5625 18.0625 C4.60568359 18.82111328 4.64886719 19.57972656 4.69335938 20.36132812 C4.79973633 22.24065438 4.90039934 24.12030244 5 26 C2.66196375 23.66196375 2.60745623 22.76546803 2.1484375 19.5703125 C2.01953125 18.69246094 1.890625 17.81460937 1.7578125 16.91015625 C1.63148438 15.99105469 1.50515625 15.07195312 1.375 14.125 C1.2409375 13.21363281 1.106875 12.30226563 0.96875 11.36328125 C0.41537365 7.50658687 0 3.90866207 0 0 Z " fill="#5F5346" transform="translate(269,331)"/>
<path d="M0 0 C4.95 0.33 9.9 0.66 15 1 C15 1.66 15 2.32 15 3 C16.423125 2.938125 16.423125 2.938125 17.875 2.875 C21 3 21 3 23 5 C14.814234 4.6623226 7.64473588 4.03153319 0 1 C0 0.67 0 0.34 0 0 Z " fill="#B2A998" transform="translate(91,214)"/>
<path d="M0 0 C8.80171974 0.61358142 17.35954742 2.29549385 26 4 C26 4.33 26 4.66 26 5 C23.16532658 4.91217358 20.33346584 4.80519098 17.5 4.6875 C16.70851562 4.66494141 15.91703125 4.64238281 15.1015625 4.61914062 C9.49673929 4.36646417 5.16173473 3.20794387 0 1 C0 0.67 0 0.34 0 0 Z " fill="#ADA493" transform="translate(205,399)"/>
<path d="M0 0 C0.33 0 0.66 0 1 0 C0.85915204 1.79206547 0.71216299 3.58364917 0.5625 5.375 C0.48128906 6.37273437 0.40007812 7.37046875 0.31640625 8.3984375 C0 11 0 11 -1 13 C-1.66 13 -2.32 13 -3 13 C-3.33 15.64 -3.66 18.28 -4 21 C-4.33 21 -4.66 21 -5 21 C-4.65059235 14.33715753 -3.99349479 8.98698958 -1 3 C-0.67 2.01 -0.34 1.02 0 0 Z " fill="#AAA18F" transform="translate(409,259)"/>
<path d="M0 0 C3.95813624 5.93720437 6.39437259 11.88387799 7 19 C2.60311136 15.51281246 1.23582395 11.3003116 0 6 C-0.1875 2.4375 -0.1875 2.4375 0 0 Z " fill="#9C9382" transform="translate(291,141)"/>
<path d="M0 0 C-5.91401451 3.18446935 -12.3048892 4.34333902 -19 4 C-19 4.66 -19 5.32 -19 6 C-20.32 5.67 -21.64 5.34 -23 5 C-22.01 5 -21.02 5 -20 5 C-20 4.34 -20 3.68 -20 3 C-13.19925959 1.09579269 -7.08076251 -0.40850553 0 0 Z " fill="#A69D8C" transform="translate(360,219)"/>
<path d="M0 0 C0 0.33 0 0.66 0 1 C-2.49840454 1.50938345 -4.99823388 2.00763114 -7.5 2.5 C-8.19609375 2.64308594 -8.8921875 2.78617188 -9.609375 2.93359375 C-14.49087203 3.88277373 -19.02718299 4.13440046 -24 4 C-16.91697905 -0.01371187 -7.9787809 -0.30687619 0 0 Z " fill="#7A6F61" transform="translate(394,213)"/>
<path d="M0 0 C1.01058283 3.23537338 0.99200982 5.82985606 0.625 9.1875 C0.48964844 10.50814453 0.48964844 10.50814453 0.3515625 11.85546875 C0 14 0 14 -1 15 C-1.07148199 16.35243917 -1.08399454 17.70834367 -1.0625 19.0625 C-1.041875 20.361875 -1.02125 21.66125 -1 23 C-1.66 23 -2.32 23 -3 23 C-3.38750039 14.7763806 -2.58716898 7.8231062 0 0 Z " fill="#908676" transform="translate(177,181)"/>
<path d="M0 0 C0.33 0.66 0.66 1.32 1 2 C0.35621941 3.34453292 -0.31421967 4.676396 -1 6 C-1.33093379 7.4918285 -1.6221093 8.99297786 -1.875 10.5 C-2.6765832 14.42387904 -3.7323097 16.49477077 -7 19 C-6.33333333 17 -5.66666667 15 -5 13 C-4.75894531 12.25363281 -4.51789063 11.50726563 -4.26953125 10.73828125 C-4.01558594 9.95839844 -3.76164062 9.17851562 -3.5 8.375 C-3.2628125 7.64023437 -3.025625 6.90546875 -2.78125 6.1484375 C-2.00043489 4.00119594 -1.06103531 2.02145521 0 0 Z " fill="#ABA291" transform="translate(403,280)"/>
<path d="M0 0 C1.54578627 3.09157253 0.60277633 5.68473019 0 9 C-0.33 9.33 -0.66 9.66 -1 10 C-1.39148761 11.51165654 -1.73972457 13.03469632 -2.0625 14.5625 C-2.23910156 15.38878906 -2.41570312 16.21507812 -2.59765625 17.06640625 C-2.73042969 17.70449219 -2.86320313 18.34257812 -3 19 C-5.01618915 12.11135372 -2.97942214 6.21792446 0 0 Z " fill="#A09686" transform="translate(182,162)"/>
<path d="M0 0 C-4.84060277 3.06242216 -8.29290936 4.53411505 -14 5 C-10.82926686 1.03658358 -5.07791308 -2.53895654 0 0 Z " fill="#938879" transform="translate(307,388)"/>
<path d="M0 0 C3.86379545 3.00517424 6.90983192 5.45081065 9 10 C8.67 10.66 8.34 11.32 8 12 C3.8157229 8.17957309 1.35005631 5.67023649 0 0 Z " fill="#736759" transform="translate(249,69)"/>
<path d="M0 0 C0.66 0.33 1.32 0.66 2 1 C-2.07999715 4.69749741 -5.86395088 6.2589664 -11 8 C-11 7.34 -11 6.68 -11 6 C-9.35546875 4.74609375 -9.35546875 4.74609375 -7.1875 3.4375 C-6.47980469 3.00308594 -5.77210938 2.56867188 -5.04296875 2.12109375 C-3 1 -3 1 0 0 Z " fill="#958B7B" transform="translate(291,211)"/>
<path d="M0 0 C2.48982535 2.27745789 4.10368997 4.62335238 5.75 7.5625 C6.19859375 8.34753906 6.6471875 9.13257813 7.109375 9.94140625 C7.40328125 10.62074219 7.6971875 11.30007813 8 12 C7.67 12.66 7.34 13.32 7 14 C5.82188197 12.42516875 4.65787174 10.83977627 3.5 9.25 C2.8503125 8.36828125 2.200625 7.4865625 1.53125 6.578125 C0 4 0 4 0 0 Z " fill="#ABA290" transform="translate(92,314)"/>
<path d="M0 0 C0.66 0 1.32 0 2 0 C3.86783046 5.48675196 4.2358396 10.22192976 4 16 C3.67 16 3.34 16 3 16 C2.855625 14.865625 2.71125 13.73125 2.5625 12.5625 C2.38828522 9.19222799 2.38828522 9.19222799 1 8 C0.54540142 5.34536879 0.29756762 2.67810862 0 0 Z " fill="#D7D0BD" transform="translate(231,319)"/>
<path d="M0 0 C1.98 0.99 1.98 0.99 4 2 C4 3.32 4 4.64 4 6 C4.66 6 5.32 6 6 6 C6.99 7.485 6.99 7.485 8 9 C7.67 9.99 7.34 10.98 7 12 C6.34 11.34 5.68 10.68 5 10 C5 9.01 5 8.02 5 7 C4.34 7 3.68 7 3 7 C0 2.61538462 0 2.61538462 0 0 Z " fill="#C0B8A5" transform="translate(267,94)"/>
<path d="M0 0 C4.38332057 0.82187261 8.67940177 1.90154282 13 3 C13 3.33 13 3.66 13 4 C9.37 3.67 5.74 3.34 2 3 C2 2.34 2 1.68 2 1 C1.34 0.67 0.68 0.34 0 0 Z " fill="#9F9584" transform="translate(182,391)"/>
<path d="M0 0 C3.93673644 1.31224548 6.22719294 2.91910327 9 6 C6.03 5.01 3.06 4.02 0 3 C0 2.01 0 1.02 0 0 Z " fill="#7C7162" transform="translate(171,240)"/>
<path d="M0 0 C6.625 0.75 6.625 0.75 10 3 C10 3.66 10 4.32 10 5 C8.51800098 4.55090939 7.03944764 4.09043436 5.5625 3.625 C4.73878906 3.36976563 3.91507813 3.11453125 3.06640625 2.8515625 C1 2 1 2 0 0 Z " fill="#A29988" transform="translate(161,235)"/>
<path d="M0 0 C0.33 0 0.66 0 1 0 C1.33 2.97 1.66 5.94 2 9 C1.01 8.67 0.02 8.34 -1 8 C-1.04241723 5.66705225 -1.04092937 3.33297433 -1 1 C-0.67 0.67 -0.34 0.34 0 0 Z " fill="#CBC3B0" transform="translate(259,291)"/>
<path d="M0 0 C2.64 0.33 5.28 0.66 8 1 C8.33 1.99 8.66 2.98 9 4 C7.68 4 6.36 4 5 4 C5 3.34 5 2.68 5 2 C3.35 1.67 1.7 1.34 0 1 C0 0.67 0 0.34 0 0 Z " fill="#CCC4B1" transform="translate(154,231)"/>
<path d="M0 0 C4.95 0.99 4.95 0.99 10 2 C10 2.66 10 3.32 10 4 C5.74357648 4.3648363 3.46444495 3.47460354 0 1 C0 0.67 0 0.34 0 0 Z " fill="#665A4C" transform="translate(131,224)"/>
<path d="M0 0 C0.66 0.33 1.32 0.66 2 1 C-0.82553984 5.23830976 -3.12180888 4.97715348 -8 6 C-6.32169152 2.64338305 -3.29210653 1.67493139 0 0 Z " fill="#C4BCAA" transform="translate(301,205)"/>
</svg>
